<?xml version="1.0" encoding="UTF-8"?>
<svg xmlns="http://www.w3.org/2000/svg" viewBox="0 0 50 32">
  <defs>
    <style>
      .cls-1 {
        fill: #fff;
      }

      .cls-2 {
        fill: #26b15d;
      }
    </style>
  </defs>
  <g id="BG">
    <rect class="cls-1" y="0" width="50" height="32" rx="4" ry="4"/>
  </g>
  <g id="LOGOS">
    <g>
      <path d="m19.4,18.56c.8,1,1.57.97,2.18.7.56-.25.86-.92.76-1.66-.02,0-.04,0-.04.02-.36.88-1.27,1.01-1.99.81-.64-.17-.97-.63-1.07-1.26-.04-.23-.05-.47-.05-.7,0-.95,0-1.9,0-2.88h1.14c0,.09.01.18.01.27v2.33c0,.17.01.33.04.5.09.62.48.86,1.09.7.5-.13.84-.59.87-1.27.03-.72.03-1.45.03-2.17v-.35h1.11s.02.08.03.12c0,1.42.03,2.83-.01,4.25-.06,1.67-1.48,2.7-3.13,2.3-.55-.13-1.05-.35-1.44-.77-.12-.12-.14-.22-.01-.35.17-.18.31-.38.48-.59Z"/>
      <path d="m12.54,13.64v.72c-.35-.51-.86-.84-1.43-.84-1.06,0-1.92,1.14-1.92,2.54s.86,2.54,1.92,2.54c.57,0,1.07-.32,1.43-.84v.84h1.16v-4.97h-1.16Zm-1.1,3.92c-.63,0-1.14-.67-1.14-1.5s.51-1.5,1.14-1.5,1.14.67,1.14,1.5-.51,1.5-1.14,1.5Z"/>
      <path d="m32.73,13.64v.72c-.35-.51-.86-.84-1.43-.84-1.06,0-1.92,1.14-1.92,2.54s.86,2.54,1.92,2.54c.57,0,1.08-.32,1.43-.84v.84h1.16v-4.97h-1.16Zm-1.1,3.92c-.63,0-1.14-.67-1.14-1.5s.51-1.5,1.14-1.5,1.14.67,1.14,1.5-.51,1.5-1.14,1.5Z"/>
      <path d="m44.84,13.64v.72c-.35-.51-.86-.84-1.43-.84-1.06,0-1.92,1.14-1.92,2.54s.86,2.54,1.92,2.54c.57,0,1.08-.32,1.43-.84v.84h1.16v-4.97h-1.16Zm-1.1,3.92c-.63,0-1.14-.67-1.14-1.5s.51-1.5,1.14-1.5,1.14.67,1.14,1.5-.51,1.5-1.14,1.5Z"/>
      <rect x="34.74" y="13.53" width="1.19" height="5.08"/>
      <circle class="cls-2" cx="35.34" cy="12.32" r=".73"/>
      <path d="m26.99,13.61c-.55,0-1.05.29-1.41.76v-.84h-1.16v6.88h1.16v-2.55c.36.47.86.76,1.41.76,1.09,0,1.97-1.12,1.97-2.5s-.88-2.5-1.97-2.5Zm-.33,3.96c-.49,0-.91-.38-1.08-.91v-1.07c.17-.54.59-.91,1.08-.91.64,0,1.16.65,1.16,1.45s-.52,1.45-1.16,1.45h0Z"/>
      <path d="m17.71,15.33h0l.83-.43c-.01-.38-.27-.73-.59-.94s-.71-.29-1.1-.33c-.62-.07-1.28-.01-1.79.34s-.81,1.07-.52,1.62c.23.45.76.66,1.26.76s1.03.12,1.48.36c.11.06.23.15.24.27s-.08.22-.17.3c-.59.49-1.47.42-1.97-.18-.14-.17-.24-.37-.29-.58l-.92.48c-.19.1.52.99.61,1.07.68.59,1.7.68,2.53.41.59-.19,1.14-.63,1.26-1.24.07-.39-.04-.79-.31-1.08-.28-.31-.7-.46-1.11-.54s-.83-.11-1.23-.24c-.17-.06-.37-.17-.36-.35,0-.17.19-.27.35-.32.34-.11.71-.16,1.05-.06s.65.35.74.7Z"/>
      <path d="m40.08,15.33h0l.83-.43c-.01-.38-.27-.73-.59-.94s-.71-.29-1.1-.33c-.62-.07-1.28-.01-1.79.34s-.81,1.07-.52,1.62c.23.45.76.66,1.26.76s1.03.12,1.48.36c.11.06.23.15.24.27s-.08.22-.17.3c-.59.49-1.47.42-1.97-.18-.14-.17-.24-.37-.29-.58l-.92.48c-.19.1.52.99.61,1.07.68.59,1.7.68,2.53.41.59-.19,1.14-.63,1.26-1.24.07-.39-.04-.79-.31-1.08-.28-.31-.7-.46-1.11-.54s-.83-.11-1.23-.24c-.17-.06-.37-.17-.36-.35,0-.17.19-.27.35-.32.34-.11.71-.16,1.05-.06s.65.35.74.7Z"/>
      <path d="m8.21,14.4s-.86-1.32-2.73-.66c0,0-1.01.28-1.47,1.9,0,0,.94,1.49,3.21,1.01,0,0,1.95-.5.99-2.25Zm-1.23,1.32c-.38.18-.96.13-1.36.03-.03,0-.55-.19-.52-.23.38-.7,1.37-1.35,2.07-.63.07.07.12.16.15.25.06.24-.12.48-.34.59h0Z"/>
      <path class="cls-2" d="m4.01,16.12s-.23,1.76,1.42,2.35,2.93-.48,3.31-1.14l-.94-.56s-.73,1.51-2.83.53c0,0-.76-.45-.96-1.18Z"/>
    </g>
  </g>
</svg>